# xmcd CD database file
#
# Track frame offsets:
#	150
#	13410
#	30110
#	41575
#	59152
#	79322
#	91950
#	112202
#	127237
#	144922
#	161270
#	176542
#
# Disc length: 2704 seconds
#
# Revision: 0
# Processed by: cddbd v1.5.1PL2 Copyright (c) Steve Scherf et al.
# Submitted via: CDex 1.51
#
DISCID=a20a8e0c
DTITLE=Wil Maring - An Ocean From Home
DYEAR=1997
DGENRE=Country
TTITLE0=Things Will Be Better Next Year
TTITLE1=Easy
TTITLE2=The Pal I Left Behind
TTITLE3=It's Raining
TTITLE4=Christmastime in My Hometown
TTITLE5=The Old Mill Valley
TTITLE6=Bucky's Present
TTITLE7=An Ocean From Home
TTITLE8=Waiting and Wondering
TTITLE9=The Old Eight By Forty
TTITLE10=Eight More Miles to Louisville
TTITLE11=Bottomlands
EXTD=YEAR: 1997
EXTT0=
EXTT1=
EXTT2=
EXTT3=
EXTT4=
EXTT5=
EXTT6=
EXTT7=
EXTT8=
EXTT9=
EXTT10=
EXTT11=
PLAYORDER=
